<svg id="Layer_1" data-name="Layer 1" xmlns="http://www.w3.org/2000/svg" viewBox="0 0 171.94 109.68"><defs><style>.cls-1{fill:#f15d43;}.cls-2{fill:#fbaf3e;}.cls-3{fill:#068486;}.cls-4{fill:#102f41;}.cls-5{fill:#6cad7e;}.cls-6{fill:#f8f1e6;}.cls-7{font-size:26px;fill:#fff;font-family:MonotypeCorsiva, Monotype Corsiva;}</style></defs><title>arts</title><rect class="cls-1" width="171.94" height="109.68" rx="12" ry="12"/><path class="cls-2" d="M97.84,91.84a13.35,13.35,0,0,0,6.46-9c.71-3.38.73-8.72-1.24-12.38-1.73-3.22-2.6-4.69-2.82-10.24-.3-7.26,7.9-17.35,7.46-21.14a11.79,11.79,0,0,0-3.62-7.42,32.3,32.3,0,0,0-9.18-6.26,30.43,30.43,0,0,0-24.15-.4,33.23,33.23,0,0,0-11,7.4,38.8,38.8,0,0,0-11,25.49A41.28,41.28,0,0,0,49,64.64,38.76,38.76,0,0,0,55.2,81.73,33.85,33.85,0,0,0,68.07,93.21a30.55,30.55,0,0,0,29.77-1.37Zm-13-11.25c-3-3-3.71-7.19-1.58-9.32s6.31-1.41,9.31,1.61,3.71,7.19,1.58,9.32S87.82,83.61,84.82,80.59Z" transform="translate(-0.03 -0.16)"/><circle class="cls-3" cx="71.65" cy="41.23" r="6.96" transform="translate(-4.29 8.34) rotate(-6.59)"/><circle class="cls-4" cx="91.04" cy="41.23" r="6.96" transform="translate(-4.16 10.57) rotate(-6.59)"/><circle class="cls-1" cx="60.83" cy="58.71" r="6.96" transform="translate(-6.37 7.21) rotate(-6.59)"/><circle class="cls-5" cx="68.24" cy="77.26" r="6.96" transform="translate(-8.44 8.18) rotate(-6.59)"/><polygon class="cls-4" points="119.87 41.57 115.45 41.46 115.41 32.39 119.83 32.49 119.87 41.57"/><path class="cls-4" d="M120,91.51a2.37,2.37,0,0,1-2.34,2.37h-.29A2.31,2.31,0,0,1,115,91.55l-1-49.62c0-1.3.49-2.36,1.78-2.37l3.79,0c1.29,0,1.77,1,1.76,2.33Z" transform="translate(-0.03 -0.16)"/><path class="cls-6" d="M120.66,17.78a35.83,35.83,0,0,1,2.63,11.32,5.62,5.62,0,1,1-11.24,0,32.72,32.72,0,0,1,1.77-8.95A8,8,0,0,0,120.66,17.78Z" transform="translate(-0.03 -0.16)"/><path class="cls-3" d="M117.67,13.57c.89,0,2,1.77,3,4.21a8,8,0,0,1-6.84,2.38C115,16.59,116.52,13.57,117.67,13.57Z" transform="translate(-0.03 -0.16)"/><text class="cls-7" transform="translate(17.91 61.16)">Arts &amp; Design</text></svg>