<svg id="Layer_1" data-name="Layer 1" xmlns="http://www.w3.org/2000/svg" viewBox="0 0 171.94 109.68"><defs><style>.cls-1{fill:#6cad7e;}.cls-2{fill:#fbaf3e;}.cls-3{fill:#102f41;}.cls-4{fill:#f1e4c4;}.cls-5{fill:#f15d43;}.cls-6{font-size:26px;fill:#fff;font-family:MonotypeCorsiva, Monotype Corsiva;}</style></defs><title>bio</title><rect class="cls-1" width="171.94" height="109.68" rx="12" ry="12"/><rect class="cls-2" x="71.49" y="77.3" width="13.47" height="14.14"/><rect class="cls-3" x="54.42" y="89.19" width="49.61" height="4.12" rx="1.77" ry="1.77"/><path class="cls-4" d="M87.87,68.72a1.41,1.41,0,0,0-1.41,1.41v2.61l-.18,0H69.16V69.78a1.41,1.41,0,1,0-2.82,0v5.63H89.28V70.13A1.41,1.41,0,0,0,87.87,68.72Z" transform="translate(-0.03 -0.16)"/><path class="cls-3" d="M94.86,82.68H62.81a4,4,0,0,1,0-7.91H93.17l12.77-13.42L90.8,34.16a4,4,0,0,1,6.91-3.85L114.26,60a4,4,0,0,1-.59,4.65L97.73,81.45A4,4,0,0,1,94.86,82.68Z" transform="translate(-0.03 -0.16)"/><rect class="cls-2" x="71.92" y="44.98" width="6.26" height="9.4" rx="1.77" ry="1.77" transform="translate(-14.91 53.06) rotate(-35.75)"/><path class="cls-3" d="M111,32.2a1.77,1.77,0,0,1-2.47-.4l-5.86-8.15a1.77,1.77,0,0,1,.4-2.46l5.86-4.32a1.77,1.77,0,0,1,2.47.4l5.86,8.15a1.77,1.77,0,0,1-.4,2.47Z" transform="translate(-0.03 -0.16)"/><path class="cls-2" d="M88.45,51a1.77,1.77,0,0,1-2.47-.4L77.69,39a1.77,1.77,0,0,1,.4-2.47L103.18,18.5a1.77,1.77,0,0,1,2.47.4L114,30.44a1.77,1.77,0,0,1-.4,2.47Z" transform="translate(-0.03 -0.16)"/><path class="cls-3" d="M82.52,55.23a1.77,1.77,0,0,1-2.47-.4L71.75,43.3a1.77,1.77,0,0,1,.4-2.47l6.06-4.26L88.58,51Z" transform="translate(-0.03 -0.16)"/><circle class="cls-5" cx="98.48" cy="39.05" r="8.06"/><circle class="cls-3" cx="98.48" cy="39.05" r="5.63"/><circle class="cls-5" cx="109.88" cy="61.6" r="6.19"/><circle class="cls-3" cx="109.88" cy="61.6" r="3.79"/><text class="cls-6" transform="translate(20.52 61.16)">Biotechnology</text></svg>