<svg id="Layer_1" data-name="Layer 1" xmlns="http://www.w3.org/2000/svg" viewBox="0 0 171.94 109.68"><defs><style>.cls-1,.cls-7{fill:#f15d43;}.cls-2,.cls-6{fill:#f1e4c4;}.cls-3{fill:#068486;}.cls-4{fill:#102f41;}.cls-5{fill:#072130;}.cls-5,.cls-6,.cls-7{fill-rule:evenodd;}.cls-8{font-size:26px;fill:#fff;font-family:MonotypeCorsiva, Monotype Corsiva;}</style></defs><title>cs</title><rect class="cls-1" width="171.94" height="109.68" rx="12" ry="12"/><rect class="cls-2" x="51.99" y="29.06" width="67.95" height="41.51" rx="2.35" ry="2.35"/><rect class="cls-3" x="56.68" y="34.35" width="58.57" height="31.44"/><circle class="cls-4" cx="85.97" cy="31.48" r="0.85"/><polygon class="cls-5" points="51.99 70.57 119.94 70.57 131.75 75.59 40.19 75.59 51.99 70.57"/><path class="cls-6" d="M40.22,75.75h91.56v3.34a1.7,1.7,0,0,1-1.7,1.7H41.92a1.7,1.7,0,0,1-1.7-1.7Z" transform="translate(-0.03 -0.16)"/><path class="cls-7" d="M98.13,78.81a.75.75,0,0,1-.75.75H74.62a.75.75,0,0,1-.75-.75h0a.75.75,0,0,1,.75-.75H97.38a.75.75,0,0,1,.75.75Z" transform="translate(-0.03 -0.16)"/><text class="cls-8" transform="translate(5.57 61.16)">Computer Science</text></svg>