<svg id="Layer_1" data-name="Layer 1" xmlns="http://www.w3.org/2000/svg" viewBox="0 0 171.94 109.68"><defs><style>.cls-1{fill:#fbaf3e;}.cls-2,.cls-4{fill:#b5615e;}.cls-3{fill:#8696b7;}.cls-4{fill-rule:evenodd;}.cls-5{fill:#d25255;}.cls-6{fill:#d7cd51;opacity:0.3;}.cls-7{fill:#2e3a92;}.cls-8{font-size:26px;fill:#fff;font-family:MonotypeCorsiva, Monotype Corsiva;}</style></defs><title>dent</title><rect class="cls-1" width="171.94" height="109.68" rx="12" ry="12"/><circle class="cls-2" cx="117.11" cy="29.56" r="10.97"/><rect class="cls-2" x="115.52" y="38.66" width="3.18" height="13.19"/><path class="cls-2" d="M121.11,89a4,4,0,0,1-4,4h0a4,4,0,0,1-4-4V50.27a4,4,0,0,1,4-4h0a4,4,0,0,1,4,4Z" transform="translate(-0.03 -0.16)"/><circle class="cls-3" cx="117.11" cy="29.56" r="8.34"/><path class="cls-4" d="M141.13,27.41c0,2.35,0,4.7-.12,7a.87.87,0,0,1-.21.45h1.64a1.6,1.6,0,0,1-.13-.73c0-2.09-.07-4.19,0-6.28A3.29,3.29,0,0,0,141,25.12c-.88-.72-1.8-1.41-2.61-2.2a2.58,2.58,0,0,1,.48-4.27,13.7,13.7,0,0,1,5.31-1.22,6.87,6.87,0,0,0-4.51-.13,3.7,3.7,0,0,0-3,2.69,3.66,3.66,0,0,0,1.27,3.76c.83.78,1.75,1.46,2.54,2.27A2.3,2.3,0,0,1,141.13,27.41Z" transform="translate(-0.03 -0.16)"/><path class="cls-2" d="M143.33,42.9V34.57h-3.43V42.9a4.29,4.29,0,0,0-2.58,3.93v41.9a4.29,4.29,0,0,0,8.59,0V46.83A4.29,4.29,0,0,0,143.33,42.9Z" transform="translate(-0.03 -0.16)"/><path class="cls-2" d="M97.75,40a11.25,11.25,0,0,0-2.22-5.72,8.14,8.14,0,0,0-4.17-2.48,25.76,25.76,0,0,0-6,.13l-7,1-7-1a25.77,25.77,0,0,0-6-.13,8.14,8.14,0,0,0-4.17,2.48A11.25,11.25,0,0,0,59,40a29.46,29.46,0,0,0,2.58,14.3,22.81,22.81,0,0,1,1.81,9.44c0,4.25,1.62,13.4,3.72,17.47a2.32,2.32,0,0,0,4.23-.49c2-6.75,3.34-23.75,7.05-23.7s5.1,17,7.05,23.7a2.32,2.32,0,0,0,4.23.49c2.1-4.07,3.72-13.23,3.72-17.47a22.81,22.81,0,0,1,1.81-9.44A29.47,29.47,0,0,0,97.75,40Z" transform="translate(-0.03 -0.16)"/><path class="cls-5" d="M92.23,42.89c0-.25,0-.5,0-.75s0-.5,0-.75A6.3,6.3,0,0,0,92.1,40a5.22,5.22,0,0,0-.48-1.26,7,7,0,0,0-.67-1,6.4,6.4,0,0,0-.73-.81,5.81,5.81,0,0,0-.68-.56A5.31,5.31,0,0,0,89,36l-.2-.09-.35.16-.06.21c0,.07,0,.15-.07.24s-.06.2-.08.32A10.45,10.45,0,0,0,88,38.63a9.76,9.76,0,0,0,0,1.12,5.34,5.34,0,0,0,.19,1.18,4.91,4.91,0,0,0,.21.6l.27.6c.09.2.19.41.28.62s.15.42.22.64c.14.43.25.86.37,1.29s.22.86.33,1.27.19.82.28,1.21l.13.57.09.53c.05.34.13.66.17.94s.07.53.1.74c.06.41.1.65.1.65l.38,0s.08-.23.2-.64c.06-.2.14-.45.22-.74s.15-.61.22-1l.12-.56.09-.61c.06-.42.13-.86.16-1.32s.09-.94.08-1.43S92.26,43.39,92.23,42.89Z" transform="translate(-0.03 -0.16)"/><circle class="cls-6" cx="68.84" cy="36.71" r="12.78"/><path class="cls-7" d="M85.91,41.3h0v-.05a17.23,17.23,0,0,0,.46-4h0A17.41,17.41,0,0,0,73.8,20.53l-.86-.23-.5-.11-.09,0-.41-.08-.15,0h-.07l-.28,0-.18,0-.32,0-.21,0-.29,0-.23,0-.27,0H68.74a17.45,17.45,0,0,0-17.2,17.44,17.11,17.11,0,0,0,.58,4.42l.08.32-2.71,1.92L47.15,45.6l-.73.52-.87.62-2.13,1.51-4.67,3.3-2.8,2-1.55,1.1-6,4.23a5.45,5.45,0,0,0-2.31,4.4l0,.12,0,0a5.48,5.48,0,0,0,1,3l.6.84a5.46,5.46,0,0,0,4.44,2.3h0a5.44,5.44,0,0,0,3.13-1l.75-.54h0L50.66,57.73l.76-.53,3.63-2.57,4.14-2.93.27.18a17.47,17.47,0,0,0,3.32,1.68,17.68,17.68,0,0,0,2.21.68c.56.13,1.12.23,1.67.3l.77.09q.77.07,1.54.07h0A17.41,17.41,0,0,0,73.8,54,17.43,17.43,0,0,0,85.91,41.3ZM44.47,59.66l-9.28,6.18a3.48,3.48,0,0,1-4.82-1,3.47,3.47,0,0,1,1-4.83l8.14-5.42,1.14-.76a3.48,3.48,0,1,1,3.86,5.79ZM78.31,44a11.51,11.51,0,0,1-9,4.4h-.52a11.5,11.5,0,0,1,0-23h.52a11.55,11.55,0,0,1,2.46.27A11.5,11.5,0,0,1,78.31,44Z" transform="translate(-0.03 -0.16)"/><text class="cls-8" transform="translate(41.05 61.16)">Dentistry</text></svg>