<svg id="Layer_1" data-name="Layer 1" xmlns="http://www.w3.org/2000/svg" xmlns:xlink="http://www.w3.org/1999/xlink" viewBox="0 0 171.94 109.68"><defs><style>.cls-1{fill:#fbaf3e;}.cls-2{fill:none;}.cls-3{fill:#068486;}.cls-4{clip-path:url(#clip-path);}.cls-14,.cls-5{fill:#fff;}.cls-6{fill:#102f41;}.cls-7{clip-path:url(#clip-path-2);}.cls-8{fill:#403934;}.cls-9{fill:#dac18e;}.cls-10{fill:#f8f1e6;}.cls-11{fill:#f1e4c4;}.cls-12{fill:#f15d43;}.cls-13{fill:#b9bbbd;}.cls-14{font-size:26px;font-family:MonotypeCorsiva, Monotype Corsiva;}</style><clipPath id="clip-path" transform="translate(-0.03 -0.16)"><rect class="cls-1" x="67.85" y="18.74" width="11.51" height="74.79" transform="translate(-0.15 0.2) rotate(-0.16)"/></clipPath><clipPath id="clip-path-2" transform="translate(-0.03 -0.16)"><path class="cls-2" d="M97.22,39.71H84.32l0,53.68H97.2V89.21c11.5-1.61,20.39-11.11,20.47-22.63s-8.83-21.32-20.46-23Zm0,38.67V54.45a12.2,12.2,0,0,1,0,23.93Z"/></clipPath></defs><title>eng</title><rect class="cls-3" width="171.94" height="109.68" rx="12" ry="12"/><rect class="cls-3" x="67.85" y="18.74" width="11.51" height="74.79" transform="translate(-0.19 0.04) rotate(-0.16)"/><rect class="cls-1" x="67.85" y="18.74" width="11.51" height="74.79" transform="translate(-0.19 0.04) rotate(-0.16)"/><g class="cls-4"><path class="cls-5" d="M75.23,24.23a.3.3,0,0,0,.3-.3V23a.3.3,0,0,0-.3-.3l-7.77,0a.31.31,0,0,0-.3.3v1a.3.3,0,0,0,.3.3Z" transform="translate(-0.03 -0.16)"/><rect class="cls-5" x="67.16" y="27.38" width="5.75" height="1.24" rx="0.3" ry="0.3" transform="translate(-0.12 0.06) rotate(-0.18)"/><path class="cls-5" d="M67.48,31.59h5.14a.31.31,0,0,1,.31.31v.63a.31.31,0,0,1-.31.31H67.48a.3.3,0,0,1-.3-.3v-.63A.3.3,0,0,1,67.48,31.59Z" transform="translate(-0.23 0.28) rotate(-0.36)"/><rect class="cls-5" x="67.19" y="35.8" width="5.75" height="1.24" rx="0.3" ry="0.3" transform="translate(-0.11 0) rotate(-0.13)"/><rect class="cls-5" x="67.2" y="40" width="5.75" height="1.24" rx="0.3" ry="0.3" transform="translate(-0.13 0.01) rotate(-0.14)"/><path class="cls-5" d="M75.29,46.34a.31.31,0,0,0,.3-.3v-1a.3.3,0,0,0-.3-.3l-7.77,0a.3.3,0,0,0-.3.31v1a.3.3,0,0,0,.31.3Z" transform="translate(-0.03 -0.16)"/><path class="cls-5" d="M72.68,50.72a.3.3,0,0,0,.3-.3v-.63a.3.3,0,0,0-.31-.3H67.53a.3.3,0,0,0-.3.3v.63a.3.3,0,0,0,.3.3Z" transform="translate(-0.03 -0.16)"/><path class="cls-5" d="M67.54,53.7h5.15a.3.3,0,0,1,.3.3v.63a.3.3,0,0,1-.3.3H67.54a.31.31,0,0,1-.31-.31V54A.3.3,0,0,1,67.54,53.7Z" transform="translate(-0.2 0.06) rotate(-0.18)"/><rect class="cls-5" x="67.25" y="57.9" width="5.75" height="1.24" rx="0.3" ry="0.3" transform="translate(-0.26 0.12) rotate(-0.23)"/><path class="cls-5" d="M67.56,62.11h5.14a.3.3,0,0,1,.3.3V63a.3.3,0,0,1-.3.3H67.56a.3.3,0,0,1-.3-.3v-.63a.31.31,0,0,1,.31-.31Z" transform="translate(-0.13 -0.05) rotate(-0.09)"/><rect class="cls-5" x="67.27" y="66.89" width="8.38" height="1.57" rx="0.3" ry="0.3" transform="translate(-0.24 0.06) rotate(-0.17)"/><path class="cls-5" d="M75.41,90.1a.3.3,0,0,0,.3-.3v-1a.31.31,0,0,0-.31-.3l-7.77,0a.3.3,0,0,0-.3.3v1a.31.31,0,0,0,.31.3Z" transform="translate(-0.03 -0.16)"/><path class="cls-5" d="M72.74,72.83a.3.3,0,0,0,.3-.3V71.9a.3.3,0,0,0-.3-.3H67.59a.3.3,0,0,0-.3.3v.63a.31.31,0,0,0,.31.3Z" transform="translate(-0.03 -0.16)"/><path class="cls-5" d="M67.6,75.8h5.15a.3.3,0,0,1,.3.3v.63a.3.3,0,0,1-.3.3H67.6a.31.31,0,0,1-.31-.31v-.63A.3.3,0,0,1,67.6,75.8Z" transform="translate(-0.15 -0.05) rotate(-0.09)"/><rect class="cls-5" x="67.31" y="80.01" width="5.75" height="1.24" rx="0.3" ry="0.3" transform="translate(-0.29 0.07) rotate(-0.18)"/><rect class="cls-5" x="67.32" y="84.22" width="5.75" height="1.24" rx="0.3" ry="0.3" transform="translate(-0.42 0.17) rotate(-0.26)"/></g><path class="cls-6" d="M97.22,39.71H84.32l0,53.68H97.2V89.21c11.5-1.61,20.39-11.11,20.47-22.63s-8.83-21.32-20.46-23Zm0,38.67V54.45a12.2,12.2,0,0,1,0,23.93Z" transform="translate(-0.03 -0.16)"/><g class="cls-7"><path class="cls-5" d="M91.7,45.44a.3.3,0,0,0,.3-.3v-1a.3.3,0,0,0-.3-.3l-7.77,0a.31.31,0,0,0-.3.31v1a.3.3,0,0,0,.3.3Z" transform="translate(-0.03 -0.16)"/><path class="cls-5" d="M83.94,48.59h5.14a.3.3,0,0,1,.3.3v.63a.31.31,0,0,1-.31.31H83.94a.3.3,0,0,1-.3-.3v-.63A.3.3,0,0,1,83.94,48.59Z" transform="translate(-0.18 0.1) rotate(-0.17)"/><path class="cls-5" d="M83.95,52.79h5.15a.3.3,0,0,1,.3.3v.63a.31.31,0,0,1-.31.31H84a.3.3,0,0,1-.3-.3V53.1a.3.3,0,0,1,.3-.3Z" transform="translate(-0.19 0.1) rotate(-0.17)"/><rect class="cls-5" x="83.66" y="57" width="5.75" height="1.24" rx="0.3" ry="0.3" transform="translate(-0.2 0.1) rotate(-0.17)"/><path class="cls-5" d="M89.12,62.44a.3.3,0,0,0,.3-.31V61.5a.3.3,0,0,0-.3-.3H84a.3.3,0,0,0-.3.3v.63a.31.31,0,0,0,.3.31Z" transform="translate(-0.03 -0.16)"/><path class="cls-5" d="M91.76,67.55a.31.31,0,0,0,.3-.3v-1a.3.3,0,0,0-.3-.3L84,66a.3.3,0,0,0-.3.31v1a.3.3,0,0,0,.3.3Z" transform="translate(-0.03 -0.16)"/><path class="cls-5" d="M91.82,89.2a.3.3,0,0,0,.3-.31v-1a.3.3,0,0,0-.31-.3l-7.77,0a.31.31,0,0,0-.3.3v1a.31.31,0,0,0,.31.3Z" transform="translate(-0.03 -0.16)"/><rect class="cls-5" x="83.7" y="70.7" width="5.75" height="1.24" rx="0.3" ry="0.3" transform="translate(-0.36 0.24) rotate(-0.27)"/><path class="cls-5" d="M84,74.75h5.15a.3.3,0,0,1,.3.3v.63a.3.3,0,0,1-.3.3H84a.31.31,0,0,1-.31-.31V75A.3.3,0,0,1,84,74.75Z"/><rect class="cls-5" x="83.72" y="79.11" width="5.75" height="1.24" rx="0.3" ry="0.3" transform="translate(-0.28 0.12) rotate(-0.18)"/><path class="cls-5" d="M84,83.32h5.15a.3.3,0,0,1,.3.3v.63a.3.3,0,0,1-.3.3H84a.31.31,0,0,1-.31-.31v-.63a.3.3,0,0,1,.3-.3Z" transform="translate(-0.3 0.12) rotate(-0.18)"/></g><polygon class="cls-8" points="56.47 21.26 59.41 21.24 57.91 16.3 56.47 21.26"/><polygon class="cls-9" points="54.29 28.77 61.67 28.72 59.41 21.24 56.47 21.26 54.29 28.77"/><path class="cls-10" d="M54.69,91.18a1.47,1.47,0,0,0,1.48,1.46l4.44,0a1.47,1.47,0,0,0,1.46-1.48l0-3.31-7.38,0Z" transform="translate(-0.03 -0.16)"/><polygon class="cls-11" points="54.71 82.13 54.64 87.72 62.02 87.67 62.09 82.09 54.71 82.13"/><path class="cls-12" d="M58.1,27.43a7.12,7.12,0,0,1,3.6,1.45l.42,53.37-7.38,0-.42-53.37A8.19,8.19,0,0,1,58.1,27.43Z" transform="translate(-0.03 -0.16)"/><polygon class="cls-13" points="54.65 85.66 54.63 86.73 62.03 86.69 62.05 85.62 54.65 85.66"/><polygon class="cls-13" points="54.7 83.33 54.68 84.39 62.06 84.35 62.07 83.28 54.7 83.33"/><path class="cls-11" d="M109,34.45a2.13,2.13,0,0,0,2.13-2.13V22.55A2.13,2.13,0,0,0,109,20.42H97.23v14Z" transform="translate(-0.03 -0.16)"/><path class="cls-12" d="M86.33,34.45H98.08v-14H86.34a2.13,2.13,0,0,0-2.13,2.13v9.77A2.13,2.13,0,0,0,86.33,34.45Z" transform="translate(-0.03 -0.16)"/><text class="cls-14" transform="translate(29.93 61.16)">Engineering</text></svg>