<svg id="Layer_1" data-name="Layer 1" xmlns="http://www.w3.org/2000/svg" viewBox="0 0 171.94 109.68"><defs><style>.cls-1{fill:#6cad7e;}.cls-2{fill:#f6b344;}.cls-3{fill:#102f41;}.cls-4{fill:#f15d43;}.cls-5{font-size:26px;fill:#fff;font-family:MonotypeCorsiva, Monotype Corsiva;}</style></defs><title>gen</title><rect class="cls-1" width="171.94" height="109.68" rx="12" ry="12"/><path class="cls-2" d="M104.61,51.56C104.61,61.82,95.33,73.11,88,78c-8.51,5.74-20.6-16.22-20.6-26.49a18.59,18.59,0,1,1,37.17,0Z" transform="translate(-0.03 -0.16)"/><path class="cls-3" d="M87.11,29.08H84.36a22.48,22.48,0,0,0-21,22.44c0,8.2,3.62,14.75,9.87,18.63v6.45A3.44,3.44,0,0,0,75,79.94a1,1,0,0,1,.46.81c0,.33.05.75-.36.85-1.69,0-1.69,1.85-1.69,1.85v4.16a1.68,1.68,0,0,0,1.69,1.68h1.13a2.33,2.33,0,0,1,1.56.75s4,3.24,7.91,3.24S93.64,90,93.64,90a2.33,2.33,0,0,1,1.56-.75h1.13A1.68,1.68,0,0,0,98,87.61V83.45s0-1.85-1.69-1.85c-.41-.1-.38-.53-.36-.85a1,1,0,0,1,.46-.81,3.43,3.43,0,0,0,1.79-3.34V70.14c6.25-3.87,9.87-10.43,9.87-18.63A22.48,22.48,0,0,0,87.11,29.08Zm6.42,36.18-1.26.66v6A2.16,2.16,0,0,1,90.56,74a11.53,11.53,0,0,1-4.54.73A17.32,17.32,0,0,1,80.9,74a2.16,2.16,0,0,1-1.71-2.12v-6l-1.26-.65C71.62,62,70.29,56.2,70.29,51.92a15.44,15.44,0,1,1,30.88,0C101.17,56.21,99.85,62,93.53,65.26Z" transform="translate(-0.03 -0.16)"/><path class="cls-4" d="M114.06,31.63a2,2,0,0,0-.42-1.55l-.63-.77a2,2,0,0,0-2.95-.16l-3.62,3.44a2,2,0,0,0-.16,2.75l.12.15a2,2,0,0,0,2.73.38L113.22,33A2,2,0,0,0,114.06,31.63Z" transform="translate(-0.03 -0.16)"/><path class="cls-4" d="M85.52,25.75h.18a2,2,0,0,0,2-1.89l.32-5a2,2,0,0,0-2-2.15H85a2,2,0,0,0-2,2.2l.43,5A2,2,0,0,0,85.52,25.75Z" transform="translate(-0.03 -0.16)"/><path class="cls-4" d="M60.28,58.15A2,2,0,0,0,58,56.63l-4.94.81a2,2,0,0,0-1.35.86,2,2,0,0,0-.3,1.57c.07.33.15.65.24,1a2,2,0,0,0,2.58,1.41L59,60.73a2,2,0,0,0,1.35-2.4S60.3,58.21,60.28,58.15Z" transform="translate(-0.03 -0.16)"/><path class="cls-4" d="M65.08,36l.12-.15A2,2,0,0,0,65,33.09l-3.7-3.36a2,2,0,0,0-2.94.23c-.21.26-.42.53-.62.79a2,2,0,0,0-.38,1.56,2,2,0,0,0,.87,1.35l4.16,2.77A2,2,0,0,0,65.08,36Z" transform="translate(-0.03 -0.16)"/><path class="cls-4" d="M120.28,57.59a2,2,0,0,0-1.37-.83l-4.94-.7a2,2,0,0,0-2.26,1.58,1.07,1.07,0,0,0-.05.19A2,2,0,0,0,113,60.19l4.78,1.42a2.07,2.07,0,0,0,1.59-.18,2.05,2.05,0,0,0,1-1.29c.07-.34.15-.65.21-1A2,2,0,0,0,120.28,57.59Z" transform="translate(-0.03 -0.16)"/><text class="cls-5" transform="translate(47.6 61.16)">General</text></svg>