<svg id="Layer_1" data-name="Layer 1" xmlns="http://www.w3.org/2000/svg" viewBox="0 0 171.94 109.68"><defs><style>.cls-1{fill:#fbaf3e;}.cls-2{fill:#036f70;}.cls-3{fill:#068486;}.cls-4{fill:#c7bda4;}.cls-5{fill:#f1e4c4;}.cls-6{fill:#f15d43;}.cls-7{font-size:26px;fill:#fff;font-family:MonotypeCorsiva, Monotype Corsiva;}</style></defs><title>lang</title><rect class="cls-1" width="171.94" height="109.68" rx="12" ry="12"/><path class="cls-2" d="M105.22,27c-11.9,0-17.4,1.8-17.4,1.8a7.15,7.15,0,0,1-3.65,0S78.06,27,66.16,27s-17.4,1.8-17.4,1.8a2.82,2.82,0,0,0-1.82,2.51V81.49A1.48,1.48,0,0,0,48.81,83a98.93,98.93,0,0,1,18.62-2c9.57,0,16.71-.15,16.71-.15a8.22,8.22,0,0,0,3.48.13s9.3,0,18.86,0a71.88,71.88,0,0,1,16.71,1.9,1.4,1.4,0,0,0,1.85-1.42V31.27a2.74,2.74,0,0,0-1.83-2.47S117.12,27,105.22,27Z" transform="translate(-0.03 -0.16)"/><path class="cls-3" d="M105.22,27c-11.9,0-17.4,1.8-17.4,1.8a7.15,7.15,0,0,1-3.65,0S78.06,27,66.16,27s-17.4,1.8-17.4,1.8a2.82,2.82,0,0,0-1.82,2.51V79.44a1.48,1.48,0,0,0,1.87,1.5,99,99,0,0,1,18.62-2,71.87,71.87,0,0,1,16.71,1.9,9.37,9.37,0,0,0,3.72.08,98.93,98.93,0,0,1,18.62-2,71.88,71.88,0,0,1,16.71,1.9,1.4,1.4,0,0,0,1.85-1.42V31.27a2.74,2.74,0,0,0-1.83-2.47S117.12,27,105.22,27Z" transform="translate(-0.03 -0.16)"/><path class="cls-4" d="M102.84,30.31c-10.43,0-15.25,1.57-15.25,1.57a6.28,6.28,0,0,1-3.2,0S79,30.31,68.62,30.31s-15.25,1.57-15.25,1.57a2.48,2.48,0,0,0-1.59,2.2V76.29a1.29,1.29,0,0,0,1.64,1.32,86.76,86.76,0,0,1,16.32-1.74,63,63,0,0,1,14.64,1.67,8.19,8.19,0,0,0,3.26.07A86.78,86.78,0,0,1,104,75.87a63,63,0,0,1,14.64,1.67,1.23,1.23,0,0,0,1.62-1.25V34.08a2.4,2.4,0,0,0-1.61-2.16S113.27,30.31,102.84,30.31Z" transform="translate(-0.03 -0.16)"/><path class="cls-5" d="M102.84,30.31c-10.43,0-15.25,1.57-15.25,1.57a6.28,6.28,0,0,1-3.2,0S79,30.31,68.62,30.31s-13.33,1.1-13.33,1.1a2.47,2.47,0,0,0-1.6,2.2V75.81a1.3,1.3,0,0,0,1.64,1.32,77.81,77.81,0,0,1,14.41-1.26,63,63,0,0,1,14.64,1.67,8.19,8.19,0,0,0,3.26.07A86.78,86.78,0,0,1,104,75.87a63,63,0,0,1,14.64,1.67,1.23,1.23,0,0,0,1.62-1.25V34.08a2.4,2.4,0,0,0-1.61-2.16S113.27,30.31,102.84,30.31Z" transform="translate(-0.03 -0.16)"/><rect class="cls-4" x="85.66" y="31.77" width="0.48" height="45.82"/><rect class="cls-6" x="84.36" y="31.77" width="3.08" height="23.19"/><text class="cls-7" transform="translate(40.14 61.16)">Language</text></svg>