<svg id="Layer_1" data-name="Layer 1" xmlns="http://www.w3.org/2000/svg" viewBox="0 0 171.94 109.68"><defs><style>.cls-1{fill:#f15d43;}.cls-2{fill:#be1e2d;}.cls-3{font-size:26px;fill:#fff;font-family:MonotypeCorsiva, Monotype Corsiva;}</style></defs><title>media</title><rect class="cls-1" width="171.94" height="109.68" rx="12" ry="12"/><path class="cls-2" d="M118,82.47V35H89.73l6.72-11.63a2.14,2.14,0,1,0-1.4-.81L87.86,35H84.14L77,22.58a2.14,2.14,0,1,0-1.4.81L82.27,35H54V82.47H74.7v3.85H61.36v4.55h49.27V86.33H97.3V82.47ZM108.76,41.1h3.4v3.39h-3.4Zm0,6.77h3.4v3.39h-3.4Zm0,6.77h3.4V58h-3.4ZM60.07,77.23v-37h42.84v37Z" transform="translate(-0.03 -0.16)"/><text class="cls-3" transform="translate(60.65 45.56)">Mass<tspan x="-46.79" y="31.2">Communication</tspan></text></svg>