<svg id="Layer_1" data-name="Layer 1" xmlns="http://www.w3.org/2000/svg" viewBox="0 0 171.94 109.68"><defs><style>.cls-1{fill:#6cad7e;}.cls-2{fill:#fbaf3e;}.cls-3{fill:#102f41;}.cls-4{fill:#072130;}.cls-5{fill:#bbbc79;}.cls-6{fill:#068486;}.cls-7{fill:#077071;}.cls-8{fill:#f15d43;}.cls-9{font-size:26px;fill:#fff;font-family:MonotypeCorsiva, Monotype Corsiva;}</style></defs><title>man</title><rect class="cls-1" width="171.94" height="109.68" rx="12" ry="12"/><polygon class="cls-2" points="51.28 73.55 67.72 55.02 108.07 55.11 123.02 71.88 51.28 73.55"/><path class="cls-3" d="M120.64,93.7V74.12h2.43V72H55.45c-3.6,0-6.52,3.51-6.52,7.83v8.07c0,4.33,2.92,7.83,6.52,7.83h67.61V93.7Z" transform="translate(-0.03 -0.16)"/><path class="cls-4" d="M119.37,93.7V74.12H57.89c-3,0-5.38,2.89-5.38,6.46v6.66c0,3.57,2.41,6.46,5.38,6.46Z" transform="translate(-0.03 -0.16)"/><path class="cls-5" d="M59.16,74.12c-3,0-5.38,2.89-5.38,6.46v6.66c0,3.57,2.41,6.46,5.38,6.46h62.17l0-19.59Z" transform="translate(-0.03 -0.16)"/><polygon class="cls-2" points="57.59 51.81 71.01 36.68 103.95 36.75 116.16 50.45 57.59 51.81"/><path class="cls-6" d="M114.22,68.29v-16h2v-1.7H61c-2.94,0-5.32,2.86-5.32,6.39v6.58C55.69,67.11,58.07,70,61,70H116.2V68.29Z" transform="translate(-0.03 -0.16)"/><path class="cls-7" d="M113.18,68.29v-16H63c-2.42,0-4.39,2.36-4.39,5.28V63c0,2.91,2,5.27,4.39,5.27Z" transform="translate(-0.03 -0.16)"/><path class="cls-5" d="M64,52.3c-2.42,0-4.39,2.36-4.39,5.28V63c0,2.91,2,5.27,4.39,5.27h50.75l0-16Z" transform="translate(-0.03 -0.16)"/><path class="cls-3" d="M84.62,45.53l-.06.09h.06l-.1.61,1-.5.45,1.76.6-1.51,1,1.06V46l1.32.4-.31-.93C87.24,44.35,85.93,45.06,84.62,45.53Z" transform="translate(-0.03 -0.16)"/><path class="cls-8" d="M97.09,20A13.26,13.26,0,0,0,88,22h0l-.39.25s0-.08,0-.12a1.14,1.14,0,0,0-.58.93c-.76.38-.71-.59-1-1.18v.21a13.76,13.76,0,0,0-8.29-2.2c-5.6.27-9.27,4.38-9.16,10.48.1,8.46,7.61,15.6,12.85,15.6a13.25,13.25,0,0,0,3.1-.35l.06-.09-.23.08.23-.08a1.12,1.12,0,0,1,.84-.45,1.12,1.12,0,0,0-.84.45c1.31-.47,2.62-1.17,3.93-.09v0a11.79,11.79,0,0,0,3.79.57c5.23,0,12.77-5.66,12.87-14.12C105.31,25.76,102.81,21,97.09,20Z" transform="translate(-0.03 -0.16)"/><path class="cls-3" d="M87.07,23.06a1.14,1.14,0,0,1,.58-.93c.06-1.25.12-2.59.15-3.39,0-1.1,2-1.68,2.93-2.58.55-.53,0-1.93,0-1.93S85.86,16.38,86,18.46c.06,1,.07,2.27.07,3.41C86.35,22.47,86.31,23.44,87.07,23.06Z" transform="translate(-0.03 -0.16)"/><text class="cls-9" transform="translate(25.33 61.16)">Management</text></svg>